<svg width="138" height="36" viewBox="0 0 138 36" fill="none" xmlns="http://www.w3.org/2000/svg" id="svg-1224693102_9748">
<path d="M57.2296 10.6064C58.4606 11.3338 59.4016 12.3412 60.0544 13.6247C60.7072 14.9081 61.0336 16.3548 61.0336 17.9586C61.0336 19.5645 60.7072 21.0091 60.0544 22.2926C59.4016 23.5761 58.4586 24.5875 57.2296 25.327C55.9985 26.0664 54.5699 26.4352 52.9439 26.4352C51.9808 26.4352 51.054 26.2579 50.1675 25.9053C49.2789 25.5527 48.4609 25.055 47.7113 24.4122V32.4072H43.73V9.93344H47.7113V11.5071C48.4387 10.8643 49.2527 10.3727 50.1513 10.0302C51.05 9.68763 51.9808 9.51637 52.9439 9.51637C54.5699 9.51435 55.9985 9.87904 57.2296 10.6064ZM55.7527 21.2832C56.6191 20.4168 57.0523 19.3086 57.0523 17.9607C57.0523 16.6127 56.6191 15.5045 55.7527 14.6381C54.8863 13.7718 53.7882 13.3386 52.4624 13.3386C51.5839 13.3386 50.782 13.536 50.0546 13.9329C49.3273 14.3299 48.755 14.8799 48.336 15.5871C47.9189 16.2944 47.7093 17.0963 47.7093 17.9949C47.7093 19.3428 48.1647 20.447 49.0734 21.3013C49.9821 22.1576 51.1124 22.5848 52.4604 22.5848C53.7882 22.5828 54.8843 22.1496 55.7527 21.2832Z" fill="#15181E"/>
<path d="M63.238 6.65722C62.8088 6.25021 62.5952 5.69411 62.5952 4.98689C62.5952 4.25953 62.8088 3.69133 63.238 3.28433C63.6651 2.87733 64.2534 2.67383 65.003 2.67383C65.7525 2.67383 66.3408 2.87733 66.768 3.28433C67.1951 3.69133 67.4107 4.25751 67.4107 4.98689C67.4107 5.67195 67.1911 6.22402 66.7519 6.64109C66.3126 7.05817 65.7303 7.26772 65.001 7.26772C64.2534 7.26772 63.6651 7.06422 63.238 6.65722ZM62.9821 25.9878V9.93338H66.9634V25.9878H62.9821Z" fill="#15181E"/>
<path d="M80.3967 9.93335H85.2767L79.4336 17.9606L85.2767 25.9878L80.3967 26.02L76.9936 21.3314L73.5582 26.02L68.6782 25.9878L74.5213 17.9606L68.6782 9.93335H73.5582L76.9936 14.6219L80.3967 9.93335Z" fill="#15181E"/>
<path d="M100.283 22.8728C99.4915 23.9648 98.4961 24.8312 97.2973 25.4739C96.0984 26.1167 94.8029 26.437 93.4126 26.437C91.8914 26.437 90.485 26.0562 89.1895 25.2966C87.8939 24.537 86.8663 23.5094 86.1067 22.2139C85.3471 20.9183 84.9663 19.512 84.9663 17.9907C84.9663 16.4715 85.3451 15.0631 86.1067 13.7676C86.8663 12.472 87.8939 11.4444 89.1895 10.6848C90.485 9.92524 91.8914 9.54443 93.4126 9.54443C94.7827 9.54443 96.0662 9.86077 97.265 10.4914C98.4639 11.1221 99.4592 11.9744 100.251 13.0442L96.9769 15.2606C95.9715 14.0839 94.7827 13.4956 93.4126 13.4956C92.5986 13.4956 91.8491 13.6991 91.164 14.1061C90.479 14.5131 89.9329 15.0591 89.5259 15.7442C89.1189 16.4292 88.9154 17.1787 88.9154 17.9928C88.9154 18.8068 89.1189 19.5563 89.5259 20.2413C89.9329 20.9264 90.479 21.4664 91.164 21.8633C91.8491 22.2602 92.5986 22.4577 93.4126 22.4577C94.7827 22.4577 95.9695 21.8694 96.9769 20.6927L100.283 22.8728Z" fill="#15181E"/>
<path d="M114.514 9.93343H118.496V25.9879H114.514V24.4142C113.765 25.057 112.947 25.5547 112.058 25.9073C111.17 26.2599 110.233 26.4372 109.249 26.4372C107.623 26.4372 106.199 26.0725 104.978 25.3451C103.757 24.6177 102.822 23.6103 102.169 22.3269C101.516 21.0434 101.19 19.5967 101.19 17.9929C101.19 16.387 101.516 14.9424 102.169 13.6589C102.822 12.3754 103.759 11.364 104.978 10.6245C106.199 9.88508 107.621 9.51636 109.249 9.51636C110.235 9.51636 111.17 9.69367 112.058 10.0463C112.947 10.3989 113.765 10.8965 114.514 11.5393V9.93343ZM112.155 22.0206C112.872 21.6257 113.438 21.0736 113.857 20.3664C114.274 19.6592 114.484 18.8573 114.484 17.9586C114.484 16.6107 114.029 15.5086 113.12 14.6522C112.209 13.7959 111.091 13.3688 109.765 13.3688C108.417 13.3688 107.309 13.802 106.443 14.6684C105.576 15.5347 105.143 16.6429 105.143 17.9909C105.143 19.3388 105.576 20.447 106.443 21.3134C107.309 22.1798 108.417 22.613 109.765 22.613C110.64 22.615 111.436 22.4175 112.155 22.0206Z" fill="#15181E"/>
<path d="M134.195 10.6064C135.426 11.3338 136.367 12.3412 137.02 13.6247C137.673 14.9081 137.999 16.3548 137.999 17.9586C137.999 19.5645 137.673 21.0091 137.02 22.2926C136.367 23.5761 135.424 24.5875 134.195 25.327C132.964 26.0664 131.536 26.4352 129.91 26.4352C128.947 26.4352 128.02 26.2579 127.133 25.9053C126.245 25.5527 125.427 25.055 124.677 24.4122V32.4072H120.696V9.93344H124.675V11.5071C125.403 10.8643 126.217 10.3727 127.115 10.0302C128.014 9.68763 128.945 9.51637 129.908 9.51637C131.536 9.51435 132.964 9.87904 134.195 10.6064ZM132.718 21.2832C133.585 20.4168 134.018 19.3086 134.018 17.9607C134.018 16.6127 133.585 15.5045 132.718 14.6381C131.852 13.7718 130.754 13.3386 129.428 13.3386C128.55 13.3386 127.748 13.536 127.02 13.9329C126.293 14.3299 125.721 14.8799 125.302 15.5871C124.883 16.2944 124.675 17.0963 124.675 17.9949C124.675 19.3428 125.131 20.447 126.039 21.3013C126.948 22.1576 128.078 22.5848 129.426 22.5848C130.754 22.5828 131.852 22.1496 132.718 21.2832Z" fill="#15181E"/>
<path d="M19.3409 34.698L12.2949 14.6984C12.7241 15.9053 14.5133 16.3667 16.3307 15.724C18.1441 15.0792 19.2905 13.5802 18.8634 12.3733L25.9315 32.3587C26.3587 33.5616 25.2303 35.0607 23.4089 35.7074C21.5895 36.3502 19.768 35.8988 19.3409 34.698Z" fill="url(#svg-1224693102_9748_paint0_linear_13_5026)"/>
<path d="M6.55838 15.2443C5.60535 12.5706 2.67372 11.1783 0 12.1314C2.67372 11.1783 4.06599 8.24672 3.11296 5.573C4.06599 8.24672 6.99762 9.63899 9.67134 8.68596C6.99762 9.63698 5.60736 12.5706 6.55838 15.2443Z" fill="url(#svg-1224693102_9748_paint1_linear_13_5026)"/>
<path d="M18.8391 12.3713C19.2683 13.5782 18.144 15.0793 16.3306 15.722C14.6502 16.3204 12.9658 15.9739 12.3855 14.9564L9.00256 5.34951C8.56534 4.15067 9.67351 2.64557 11.4768 1.98469C13.2781 1.32785 15.0975 1.76508 15.5368 2.9619V2.96391L18.8613 12.3612L18.8391 12.3713Z" fill="url(#svg-1224693102_9748_paint2_linear_13_5026)"/>
<path d="M18.6254 0C19.9229 0 21.1802 0.173278 22.375 0.497671L22.373 0.499688C24.9419 2.77245 26.5639 6.09496 26.5639 9.79626C26.5639 12.5284 25.6814 15.0571 24.1823 17.1062C24.6115 16.5259 24.8513 15.8046 24.8513 15.0289C24.8513 13.1027 23.2898 11.5411 21.3636 11.5411C20.4125 11.5411 19.5502 11.9219 18.9215 12.5385L15.5346 2.96588H15.5325C15.0953 1.76703 13.2779 1.3278 11.4726 1.98666C11.3537 2.03098 11.2369 2.07732 11.124 2.12769C12.1456 1.49503 13.2517 0.989297 14.4244 0.628636C14.5795 0.580279 14.7387 0.533939 14.8958 0.491627C15.0409 0.45133 15.188 0.415065 15.3351 0.380812C15.3633 0.372753 15.3935 0.366707 15.4217 0.360662C15.5869 0.32238 15.7542 0.288123 15.9214 0.255885C16.008 0.239766 16.0947 0.223651 16.1813 0.209547C16.2881 0.191414 16.3969 0.173278 16.5037 0.157159C16.5541 0.1491 16.6044 0.143058 16.6548 0.134999C16.6911 0.128954 16.7253 0.124923 16.7616 0.120893C16.8362 0.110819 16.9087 0.102756 16.9832 0.092682C17.0719 0.0826077 17.1626 0.0725365 17.2532 0.0644771C17.3217 0.0564176 17.3923 0.0523886 17.4628 0.0463441C17.499 0.0423143 17.5353 0.0402977 17.5716 0.0382829C17.6522 0.0322383 17.7348 0.0282113 17.8174 0.0221667C17.8678 0.018137 17.9202 0.0161204 17.9725 0.0141055C18.0169 0.0120907 18.0632 0.010076 18.1095 0.00806117C18.1942 0.00403145 18.2808 0.00201486 18.3654 0C18.4541 0.00201486 18.5387 0 18.6254 0Z" fill="url(#svg-1224693102_9748_paint3_linear_13_5026)"/>
<path d="M18.3677 0.00195312C18.2831 0.00396799 18.1964 0.00597842 18.1118 0.0100081C18.1964 0.00799329 18.2831 0.00396799 18.3677 0.00195312Z" fill="url(#svg-1224693102_9748_paint4_linear_13_5026)"/>
<path d="M16.7655 0.12085C16.7292 0.124879 16.695 0.128911 16.6587 0.134955C16.695 0.130925 16.7292 0.124879 16.7655 0.12085Z" fill="url(#svg-1224693102_9748_paint5_linear_13_5026)"/>
<path d="M14.8979 0.491674C15.043 0.451377 15.1901 0.415112 15.3372 0.380859C15.1901 0.415112 15.045 0.453392 14.8979 0.491674Z" fill="url(#svg-1224693102_9748_paint6_linear_13_5026)"/>
<path d="M32.8886 14.2651C32.8886 22.1432 26.5015 28.5283 18.6254 28.5283C12.0449 28.5283 6.50601 24.0735 4.85986 18.0168C7.13464 20.5857 10.4551 22.2057 14.1564 22.2057C18.2668 22.2057 21.9116 20.2069 24.1703 17.1262C24.1764 17.1202 24.1804 17.1141 24.1844 17.1061C25.6815 15.057 26.566 12.5303 26.566 9.79615C26.566 6.09485 24.944 2.77234 22.3751 0.499575L22.3771 0.497559C28.4338 2.14572 32.8886 7.68457 32.8886 14.2651Z" fill="url(#svg-1224693102_9748_paint7_linear_13_5026)"/>
<defs>
<linearGradient id="svg-1224693102_9748_paint0_linear_13_5026" x1="16.3011" y1="25.7698" x2="22.2575" y2="23.5906" gradientUnits="userSpaceOnUse">
<stop stop-color="#0D0370"/>
<stop offset="1" stop-color="#644EE5"/>
</linearGradient>
<linearGradient id="svg-1224693102_9748_paint1_linear_13_5026" x1="9.67152" y1="10.4083" x2="0.00024211" y2="10.4083" gradientUnits="userSpaceOnUse">
<stop stop-color="#F77D2B"/>
<stop offset="1" stop-color="#F9CE28"/>
</linearGradient>
<linearGradient id="svg-1224693102_9748_paint2_linear_13_5026" x1="10.6084" y1="10.0592" x2="16.5175" y2="7.89727" gradientUnits="userSpaceOnUse">
<stop stop-color="#A3A6FF"/>
<stop offset="1" stop-color="white"/>
</linearGradient>
<linearGradient id="svg-1224693102_9748_paint3_linear_13_5026" x1="11.1266" y1="8.55398" x2="26.5635" y2="8.55398" gradientUnits="userSpaceOnUse">
<stop stop-color="#644EE5"/>
<stop offset="1" stop-color="#0D0370"/>
</linearGradient>
<linearGradient id="svg-1224693102_9748_paint4_linear_13_5026" x1="-9.71182" y1="14.9724" x2="29.0908" y2="-5.82598" gradientUnits="userSpaceOnUse">
<stop stop-color="#644EE5"/>
<stop offset="1" stop-color="#2D0071"/>
</linearGradient>
<linearGradient id="svg-1224693102_9748_paint5_linear_13_5026" x1="4.53102" y1="6.65418" x2="21.4454" y2="-2.40612" gradientUnits="userSpaceOnUse">
<stop stop-color="#644EE5"/>
<stop offset="1" stop-color="#2D0071"/>
</linearGradient>
<linearGradient id="svg-1224693102_9748_paint6_linear_13_5026" x1="-38.5617" y1="29.1928" x2="35.9743" y2="-10.7384" gradientUnits="userSpaceOnUse">
<stop stop-color="#644EE5"/>
<stop offset="1" stop-color="#2D0071"/>
</linearGradient>
<linearGradient id="svg-1224693102_9748_paint7_linear_13_5026" x1="5.8216" y1="23.3374" x2="30.3946" y2="10.1733" gradientUnits="userSpaceOnUse">
<stop stop-color="#644EE5"/>
<stop offset="0.3" stop-color="#DE4D97"/>
<stop offset="0.7" stop-color="#F77D2B"/>
<stop offset="1" stop-color="#F9CE28"/>
</linearGradient>
</defs>
</svg>